<?xml version="1.0" encoding="utf-8"?>
<!-- Generator: Adobe Illustrator 22.1.0, SVG Export Plug-In . SVG Version: 6.00 Build 0)  -->
<svg version="1.1" id="Layer_1" xmlns="http://www.w3.org/2000/svg" xmlns:xlink="http://www.w3.org/1999/xlink" x="0px" y="0px"
	 viewBox="0 0 260 260" style="enable-background:new 0 0 260 260;" xml:space="preserve">
<style type="text/css">
	.st0{fill:#FFFFFF;}
</style>
<g>
	<path class="st0" d="M260.2,260.2c-86.7,0-173.3,0-260,0c0-86.7,0-173.3,0-260c86.7,0,173.3,0,260,0
		C260.2,86.8,260.2,173.5,260.2,260.2z M113.4,31.6c-4.7,1.1-9.1,2.6-13.3,4.6C83.8,44,71.6,55.9,64.3,72.5
		c-2.7,6.2-4.4,12.7-4.8,19.4c-0.2,3.5-0.2,7-0.3,10.5c-0.3,9.8-0.4,19.7-0.9,29.5c-0.3,6.3-1,12.6-1.7,18.8
		c-0.7,6.7-1.9,13.4-3.7,19.9c-1.3,4.8-2.9,9.5-5.5,13.8c-1.8,3-4,5.7-7.1,7.4c-0.6,0.3-0.7,0.7-0.6,1.2c1,5,3,9.6,6.3,13.5
		c3.6,4.3,7.7,8.1,11.9,11.7c7.4,6.3,15.4,11.7,23.8,16.6c14.6,8.5,29.9,15.5,45.8,21.1c0.4,0.1,1,0.1,1.4,0
		c7.5-2.4,14.9-5.3,22.2-8.5c11.9-5.2,23.4-11.3,34.2-18.6c9.2-6.3,17.8-13.4,24.9-22.1c3.4-4.1,5.5-8.7,6.6-13.9
		c0.1-0.4,0.1-0.7-0.4-1c-2.4-1.1-4.3-2.9-5.8-5c-2.6-3.4-4.2-7.3-5.6-11.4c-3-9.1-4.5-18.5-5.5-27.9c-0.7-6.3-1.2-12.6-1.5-18.9
		c-0.4-8.8-0.5-17.5-0.8-26.3c-0.1-4.2,0-8.4-0.4-12.5c-1-9.8-4.3-18.9-9.6-27.2c-9.2-14.4-22.1-24.2-38.3-29.5
		c-1.9-0.6-3.9-1.1-5.9-1.7c-3.4,11.2-6.7,22.2-10.1,33.2c0.1-2.1,0.5-4.1,0.8-6.2c1.3-8,2.6-16,3.8-24c0.2-1.3,0.6-2.6,0.2-4
		c-3.1-9.4-6.1-18.9-9.2-28.4c-0.1-0.3-0.2-0.5-0.3-0.9C128,1.6,128,1.8,127.9,2c-2.9,8.9-5.7,17.8-8.7,26.7c-0.6,1.8-1,3.6-0.5,5.5
		c0.2,0.6,0.2,1.3,0.3,1.9c1.3,8.4,2.7,16.8,4,25.1c0.2,1.2,0.4,2.3,0.5,3.5c-0.1,0-0.1,0-0.2,0C120.2,53.8,116.8,42.7,113.4,31.6z"
		/>
	<path d="M113.4,31.6c3.4,11.1,6.7,22.2,10.1,33.3c0.1,0,0.1,0,0.2,0c-0.2-1.2-0.4-2.3-0.5-3.5c-1.3-8.4-2.7-16.8-4-25.1
		c-0.1-0.6-0.1-1.3-0.3-1.9c-0.6-1.9-0.1-3.7,0.5-5.5c2.9-8.9,5.8-17.8,8.7-26.7c0.1-0.2,0.1-0.4,0.3-0.8c0.2,0.4,0.3,0.7,0.3,0.9
		c3.1,9.5,6.1,18.9,9.2,28.4c0.5,1.4,0,2.7-0.2,4c-1.2,8-2.6,16-3.8,24c-0.3,2.1-0.7,4.1-0.8,6.2c3.3-11,6.7-22,10.1-33.2
		c2,0.6,4,1,5.9,1.7c16.2,5.3,29.1,15.1,38.3,29.5c5.3,8.3,8.6,17.4,9.6,27.2c0.4,4.1,0.3,8.3,0.4,12.5c0.3,8.8,0.4,17.5,0.8,26.3
		c0.3,6.3,0.8,12.6,1.5,18.9c1,9.5,2.5,18.9,5.5,27.9c1.3,4,3,7.9,5.6,11.4c1.6,2.1,3.4,3.9,5.8,5c0.5,0.2,0.5,0.5,0.4,1
		c-1,5.2-3.2,9.8-6.6,13.9c-7.1,8.7-15.6,15.8-24.9,22.1c-10.8,7.3-22.3,13.4-34.2,18.6c-7.3,3.2-14.6,6.1-22.2,8.5
		c-0.4,0.1-1,0.1-1.4,0c-15.9-5.6-31.2-12.6-45.8-21.1c-8.4-4.9-16.4-10.3-23.8-16.6c-4.3-3.6-8.3-7.4-11.9-11.7
		c-3.3-3.9-5.3-8.5-6.3-13.5c-0.1-0.6,0-0.9,0.6-1.2c3.1-1.7,5.3-4.4,7.1-7.4c2.6-4.3,4.2-9,5.5-13.8c1.8-6.5,3-13.2,3.7-19.9
		c0.7-6.3,1.4-12.5,1.7-18.8c0.5-9.8,0.7-19.6,0.9-29.5c0.1-3.5,0.1-7,0.3-10.5c0.4-6.7,2.1-13.2,4.8-19.4
		c7.3-16.6,19.5-28.6,35.8-36.4C104.3,34.1,108.7,32.7,113.4,31.6z M136.9,136.3c1.7,2.2,3.2,4.4,4.9,6.3c4,4.5,8.7,7.8,14.9,8.4
		c4.4,0.5,8.2-0.7,11.3-3.9c2.2-2.3,3.8-4.9,5-7.8c2.4-5.4,3.8-11,4.7-16.8c0.2-1.4,0.4-2.7,0.6-4.2
		C164.5,124.3,150.9,130.2,136.9,136.3z M119.3,136.2c-13.8-6-27.5-11.9-41.2-17.8c0,0.3,0,0.4,0,0.6c0.5,3,0.9,5.9,1.5,8.9
		c1.2,5.5,2.9,10.8,5.8,15.5c1.7,2.8,3.8,5.3,6.9,6.6c3.7,1.6,7.5,1.4,11.2,0.2C110.7,147.8,115.4,142.5,119.3,136.2z"/>
	<path class="st0" d="M136.9,136.3c14-6,27.6-12,41.5-18c-0.2,1.5-0.4,2.9-0.6,4.2c-0.9,5.8-2.3,11.4-4.7,16.8
		c-1.3,2.8-2.9,5.5-5,7.8c-3.1,3.2-6.9,4.4-11.3,3.9c-6.2-0.7-10.9-4-14.9-8.4C140.1,140.7,138.6,138.5,136.9,136.3z"/>
	<path class="st0" d="M119.3,136.2c-3.9,6.3-8.6,11.6-15.8,14c-3.7,1.2-7.5,1.5-11.2-0.2c-3.1-1.4-5.2-3.8-6.9-6.6
		c-3-4.8-4.7-10.1-5.8-15.5c-0.6-2.9-1-5.9-1.5-8.9c0-0.2,0-0.3,0-0.6C91.8,124.3,105.5,130.2,119.3,136.2z"/>
</g>
</svg>
